<svg width="72" height="72" viewBox="0 0 72 72" fill="none" xmlns="http://www.w3.org/2000/svg">
<g opacity="0.7">
<path d="M26.8056 23.3064L25.0416 33.6024C25.0049 33.8047 25.0268 34.0133 25.1045 34.2036C25.1823 34.3939 25.3128 34.5581 25.4807 34.6768C25.6486 34.7955 25.8468 34.8639 26.0522 34.8738C26.2575 34.8837 26.4615 34.8348 26.64 34.7328L35.856 29.8728L45.1008 34.7328C45.2792 34.8272 45.4804 34.8698 45.6818 34.8556C45.8831 34.8415 46.0764 34.7712 46.2398 34.6527C46.4032 34.5343 46.5302 34.3724 46.6063 34.1855C46.6824 33.9986 46.7046 33.7941 46.6704 33.5952L44.9064 23.2992L52.38 16.0128C52.5246 15.8722 52.627 15.694 52.6755 15.4983C52.724 15.3025 52.7168 15.0971 52.6546 14.9053C52.5924 14.7135 52.4777 14.5429 52.3236 14.4129C52.1694 14.2828 51.982 14.1986 51.7824 14.1696L41.4432 12.672L36.8208 3.312C36.7316 3.13133 36.5936 2.97921 36.4225 2.87285C36.2514 2.76649 36.0539 2.71012 35.8524 2.71012C35.6509 2.71012 35.4534 2.76649 35.2823 2.87285C35.1112 2.97921 34.9732 3.13133 34.884 3.312L30.24 12.672L19.9296 14.1696C19.73 14.1986 19.5426 14.2828 19.3884 14.4129C19.2343 14.5429 19.1196 14.7135 19.0574 14.9053C18.9952 15.0971 18.988 15.3025 19.0365 15.4983C19.085 15.694 19.1874 15.8722 19.332 16.0128L26.8056 23.3064ZM31.1256 14.724C31.2989 14.6989 31.4635 14.6321 31.6053 14.5292C31.747 14.4264 31.8616 14.2906 31.9392 14.1336L35.8416 6.2136L39.744 14.1336C39.8216 14.2906 39.9362 14.4264 40.0779 14.5292C40.2197 14.6321 40.3843 14.6989 40.5576 14.724L49.2912 15.9912L42.984 22.1544C42.8585 22.2769 42.7648 22.4281 42.7108 22.5949C42.6569 22.7618 42.6444 22.9392 42.6744 23.112L44.1648 31.8096L36.36 27.6984C36.2047 27.6164 36.0317 27.5736 35.856 27.5736C35.6804 27.5736 35.5074 27.6164 35.352 27.6984L27.54 31.8024L29.0304 23.112C29.0604 22.9392 29.0479 22.7618 28.994 22.5949C28.94 22.4281 28.8463 22.2769 28.7208 22.1544L22.3992 15.9984L31.1256 14.724Z" fill="#DBDBDB"/>
<path d="M61.2 32.4C61.2093 32.3187 61.2093 32.2365 61.2 32.1552V32.1048C61.1814 32.0428 61.1573 31.9825 61.128 31.9248L61.092 31.86C61.0601 31.809 61.024 31.7609 60.984 31.716L60.9408 31.6656C60.8824 31.6054 60.8172 31.5522 60.7464 31.5072L51.552 25.812C51.3085 25.6592 51.0143 25.6094 50.7342 25.6736C50.454 25.7377 50.2108 25.9105 50.058 26.154C49.9052 26.3975 49.8554 26.6917 49.9196 26.9718C49.9837 27.252 50.1565 27.4952 50.4 27.648L57.8952 32.2992L29.3328 46.584L13.8096 32.6808L21.2184 29.16C21.4771 29.0368 21.6764 28.8159 21.7722 28.5459C21.8681 28.2758 21.8528 27.9787 21.7296 27.72C21.6064 27.4613 21.3855 27.262 21.1155 27.1662C20.8454 27.0703 20.5483 27.0856 20.2896 27.2088L11.4192 31.428C11.3416 31.4671 11.2691 31.5154 11.2032 31.572L11.1528 31.6152C11.0963 31.6672 11.0456 31.7251 11.0016 31.788V31.8312C10.9531 31.9076 10.9144 31.9899 10.8864 32.076V32.1336C10.8781 32.2102 10.8781 32.2874 10.8864 32.364C10.8864 32.364 10.8864 32.364 10.8864 32.4V54.144C10.8858 54.3015 10.9196 54.4572 10.9855 54.6002C11.0515 54.7433 11.1479 54.8702 11.268 54.972L28.548 70.308C28.6348 70.3778 28.732 70.4337 28.836 70.4736H28.8792C28.9881 70.511 29.1024 70.5304 29.2176 70.5312C29.2942 70.5394 29.3714 70.5394 29.448 70.5312H29.4984L29.664 70.4736L60.624 55.1376C60.8037 55.0429 60.9531 54.8995 61.055 54.7237C61.1569 54.548 61.2072 54.347 61.2 54.144V32.4ZM12.96 34.8192L28.08 48.3624V67.1544L12.96 53.64V34.8192ZM59.04 53.46L30.24 67.7736V48.5496L59.04 34.1496V53.46Z" fill="#DBDBDB"/>
</g>
</svg>
