<svg width="72" height="72" viewBox="0 0 72 72" fill="none" xmlns="http://www.w3.org/2000/svg">
<g opacity="0.7">
<path d="M55.3536 35.9424C55.2715 35.7465 55.1334 35.5792 54.9567 35.4614C54.7799 35.3436 54.5724 35.2805 54.36 35.28H41.9256L49.1256 6.0336C49.1762 5.80503 49.1511 5.56622 49.0542 5.35312C48.9573 5.14003 48.7938 4.96419 48.5883 4.85209C48.3828 4.73999 48.1464 4.6977 47.9148 4.7316C47.6831 4.76549 47.4688 4.87372 47.304 5.04L16.8768 35.5968C16.726 35.7478 16.6232 35.9402 16.5816 36.1496C16.5401 36.3589 16.5614 36.5759 16.6431 36.7732C16.7248 36.9704 16.8631 37.139 17.0405 37.2577C17.2179 37.3764 17.4265 37.4398 17.64 37.44H30.0744L22.8744 66.6864C22.8238 66.915 22.8489 67.1538 22.9458 67.3669C23.0427 67.58 23.2062 67.7558 23.4117 67.8679C23.6172 67.98 23.8536 68.0223 24.0852 67.9884C24.3169 67.9545 24.5312 67.8463 24.696 67.68L55.1232 37.1232C55.2744 36.9714 55.377 36.7781 55.418 36.5679C55.4591 36.3576 55.4366 36.1399 55.3536 35.9424ZM25.92 63.4248L32.5152 36.6192C32.5547 36.4593 32.5572 36.2924 32.5223 36.1314C32.4875 35.9704 32.4162 35.8195 32.3141 35.6903C32.212 35.5611 32.0816 35.4569 31.933 35.3858C31.7844 35.3147 31.6215 35.2785 31.4568 35.28H20.2392L46.08 9.2952L39.4992 36.1008C39.46 36.2595 39.4573 36.4251 39.4913 36.585C39.5254 36.745 39.5953 36.8951 39.6959 37.024C39.7964 37.153 39.9249 37.2574 40.0717 37.3295C40.2185 37.4015 40.3797 37.4393 40.5432 37.44H51.7608L25.92 63.4248Z" fill="#DBDBDB"/>
<path d="M51.1632 49.6368C50.9585 49.446 50.6877 49.3422 50.4079 49.3471C50.1281 49.352 49.8611 49.4654 49.6633 49.6633C49.4654 49.8611 49.352 50.1281 49.3471 50.4079C49.3422 50.6877 49.446 50.9585 49.6368 51.1632L58.2768 59.8032C58.4815 59.994 58.7523 60.0978 59.0321 60.0929C59.3119 60.088 59.5789 59.9746 59.7767 59.7767C59.9746 59.5789 60.088 59.3119 60.0929 59.0321C60.0978 58.7523 59.994 58.4815 59.8032 58.2768L51.1632 49.6368Z" fill="#DBDBDB"/>
<path d="M20.16 21.96C20.3735 21.9598 20.5821 21.8964 20.7595 21.7777C20.9369 21.659 21.0752 21.4904 21.1569 21.2932C21.2386 21.0959 21.2599 20.8789 21.2183 20.6696C21.1768 20.4602 21.074 20.2678 20.9232 20.1168L12.2832 11.4768C12.0785 11.286 11.8077 11.1822 11.5279 11.1871C11.2481 11.192 10.9811 11.3054 10.7833 11.5033C10.5854 11.7011 10.472 11.9681 10.4671 12.2479C10.4622 12.5277 10.566 12.7985 10.7568 13.0032L19.3968 21.6432C19.5991 21.8458 19.8737 21.9597 20.16 21.96Z" fill="#DBDBDB"/>
<path d="M49.2768 21.2832C49.4793 21.4854 49.7538 21.599 50.04 21.599C50.3262 21.599 50.6007 21.4854 50.8032 21.2832L59.4432 12.6432C59.634 12.4385 59.7378 12.1677 59.7329 11.8879C59.728 11.6081 59.6146 11.3411 59.4167 11.1433C59.2189 10.9454 58.9519 10.832 58.6721 10.8271C58.3923 10.8222 58.1215 10.926 57.9168 11.1168L49.2768 19.7568C49.0746 19.9593 48.9609 20.2338 48.9609 20.52C48.9609 20.8062 49.0746 21.0807 49.2768 21.2832Z" fill="#DBDBDB"/>
<path d="M19.7568 49.9968L11.1168 58.6368C11.0107 58.7357 10.9256 58.8549 10.8666 58.9874C10.8075 59.1199 10.7758 59.2629 10.7732 59.4079C10.7707 59.5529 10.7973 59.6969 10.8517 59.8314C10.906 59.9659 10.9868 60.0881 11.0894 60.1906C11.1919 60.2932 11.3141 60.374 11.4486 60.4283C11.5831 60.4827 11.7271 60.5093 11.8721 60.5068C12.0171 60.5042 12.1601 60.4725 12.2926 60.4134C12.4251 60.3544 12.5443 60.2693 12.6432 60.1632L21.2832 51.5232C21.474 51.3185 21.5778 51.0477 21.5729 50.7679C21.568 50.4881 21.4546 50.2211 21.2567 50.0233C21.0589 49.8254 20.7919 49.712 20.5121 49.7071C20.2323 49.7022 19.9615 49.806 19.7568 49.9968Z" fill="#DBDBDB"/>
<path d="M13.32 46.8C14.3141 46.8 15.12 45.9941 15.12 45C15.12 44.0059 14.3141 43.2 13.32 43.2C12.3259 43.2 11.52 44.0059 11.52 45C11.52 45.9941 12.3259 46.8 13.32 46.8Z" fill="#DBDBDB"/>
<path d="M6.84 41.76C7.83411 41.76 8.64 40.9541 8.64 39.96C8.64 38.9659 7.83411 38.16 6.84 38.16C5.84589 38.16 5.04 38.9659 5.04 39.96C5.04 40.9541 5.84589 41.76 6.84 41.76Z" fill="#DBDBDB"/>
<path d="M64.44 32.4C65.4341 32.4 66.24 31.5941 66.24 30.6C66.24 29.6059 65.4341 28.8 64.44 28.8C63.4459 28.8 62.64 29.6059 62.64 30.6C62.64 31.5941 63.4459 32.4 64.44 32.4Z" fill="#DBDBDB"/>
<path d="M22.68 14.4C23.6741 14.4 24.48 13.5941 24.48 12.6C24.48 11.6059 23.6741 10.8 22.68 10.8C21.6859 10.8 20.88 11.6059 20.88 12.6C20.88 13.5941 21.6859 14.4 22.68 14.4Z" fill="#DBDBDB"/>
</g>
</svg>
