<svg width="72" height="72" viewBox="0 0 72 72" fill="none" xmlns="http://www.w3.org/2000/svg">
<g opacity="0.7">
<path d="M18.72 15.12H14.4C14.1136 15.12 13.8389 15.2338 13.6363 15.4363C13.4338 15.6389 13.32 15.9136 13.32 16.2C13.32 16.4864 13.4338 16.7611 13.6363 16.9637C13.8389 17.1662 14.1136 17.28 14.4 17.28H18.72C19.0064 17.28 19.2811 17.1662 19.4837 16.9637C19.6862 16.7611 19.8 16.4864 19.8 16.2C19.8 15.9136 19.6862 15.6389 19.4837 15.4363C19.2811 15.2338 19.0064 15.12 18.72 15.12Z" fill="#DBDBDB"/>
<path d="M28.8 15.12H24.48C24.1936 15.12 23.9189 15.2338 23.7163 15.4363C23.5138 15.6389 23.4 15.9136 23.4 16.2C23.4 16.4864 23.5138 16.7611 23.7163 16.9637C23.9189 17.1662 24.1936 17.28 24.48 17.28H28.8C29.0864 17.28 29.3611 17.1662 29.5637 16.9637C29.7662 16.7611 29.88 16.4864 29.88 16.2C29.88 15.9136 29.7662 15.6389 29.5637 15.4363C29.3611 15.2338 29.0864 15.12 28.8 15.12Z" fill="#DBDBDB"/>
<path d="M62.2368 19.44H60.48V13.7232C60.4781 12.7575 60.0936 11.832 59.4108 11.1492C58.728 10.4663 57.8025 10.0819 56.8368 10.08H12.2832C11.3175 10.0819 10.392 10.4663 9.70917 11.1492C9.02635 11.832 8.6419 12.7575 8.64 13.7232V42.4368C8.6419 43.4025 9.02635 44.328 9.70917 45.0108C10.392 45.6937 11.3175 46.0781 12.2832 46.08H15.12V54.3168C15.1219 55.187 15.4684 56.021 16.0837 56.6363C16.699 57.2516 17.533 57.5981 18.4032 57.6H28.3968C29.267 57.5981 30.101 57.2516 30.7163 56.6363C31.3316 56.021 31.6781 55.187 31.68 54.3168V46.08H36.72V54.3168C36.7219 55.187 37.0684 56.021 37.6837 56.6363C38.299 57.2516 39.133 57.5981 40.0032 57.6H62.2368C63.107 57.5981 63.941 57.2516 64.5563 56.6363C65.1716 56.021 65.5181 55.187 65.52 54.3168V22.7232C65.5181 21.853 65.1716 21.019 64.5563 20.4037C63.941 19.7884 63.107 19.4419 62.2368 19.44ZM28.3968 55.44H18.4032C18.1059 55.4381 17.8213 55.3192 17.6111 55.1089C17.4008 54.8987 17.2819 54.6141 17.28 54.3168V32.8032C17.2819 32.5059 17.4008 32.2213 17.6111 32.0111C17.8213 31.8008 18.1059 31.6819 18.4032 31.68H28.3968C28.6941 31.6819 28.9787 31.8008 29.1889 32.0111C29.3992 32.2213 29.5181 32.5059 29.52 32.8032V44.9928V54.3168C29.5181 54.6141 29.3992 54.8987 29.1889 55.1089C28.9787 55.3192 28.6941 55.4381 28.3968 55.44ZM31.68 43.92V32.8032C31.6781 31.933 31.3316 31.099 30.7163 30.4837C30.101 29.8684 29.267 29.5219 28.3968 29.52H18.4032C17.533 29.5219 16.699 29.8684 16.0837 30.4837C15.4684 31.099 15.1219 31.933 15.12 32.8032V43.92H12.2832C11.8898 43.92 11.5126 43.7637 11.2344 43.4856C10.9563 43.2074 10.8 42.8302 10.8 42.4368V13.7232C10.8 13.3298 10.9563 12.9526 11.2344 12.6744C11.5126 12.3963 11.8898 12.24 12.2832 12.24H56.8368C57.2302 12.24 57.6074 12.3963 57.8856 12.6744C58.1637 12.9526 58.32 13.3298 58.32 13.7232V19.44H40.0032C39.133 19.4419 38.299 19.7884 37.6837 20.4037C37.0684 21.019 36.7219 21.853 36.72 22.7232V43.92H31.68ZM63.36 54.3168C63.3581 54.6141 63.2392 54.8987 63.0289 55.1089C62.8187 55.3192 62.5341 55.4381 62.2368 55.44H40.0032C39.7059 55.4381 39.4213 55.3192 39.2111 55.1089C39.0008 54.8987 38.8819 54.6141 38.88 54.3168V22.7232C38.8819 22.4259 39.0008 22.1413 39.2111 21.9311C39.4213 21.7208 39.7059 21.6019 40.0032 21.6H62.2368C62.5341 21.6019 62.8187 21.7208 63.0289 21.9311C63.2392 22.1413 63.3581 22.4259 63.36 22.7232V54.3168Z" fill="#DBDBDB"/>
<path d="M51.1244 52.9212C52.1185 52.9178 52.9216 52.1091 52.9181 51.115C52.9147 50.1209 52.106 49.3178 51.1118 49.3213C50.1177 49.3247 49.3147 50.1334 49.3181 51.1275C49.3216 52.1216 50.1303 52.9247 51.1244 52.9212Z" fill="#DBDBDB"/>
</g>
</svg>
