<svg width="72" height="72" viewBox="0 0 72 72" fill="none" xmlns="http://www.w3.org/2000/svg">
<g opacity="0.7">
<path fill-rule="evenodd" clip-rule="evenodd" d="M67.3099 15.8897L56.1103 4.69008C55.9078 4.48761 55.6331 4.37387 55.3468 4.37387C55.0604 4.37387 54.7857 4.48761 54.5832 4.69008L34.6572 24.6154L22.6282 12.78C22.6188 12.7706 22.6066 12.7642 22.5965 12.7555C22.5565 12.7195 22.5139 12.6865 22.469 12.6569C22.4474 12.6425 22.4273 12.6266 22.405 12.6137C22.3507 12.5839 22.2941 12.5586 22.2358 12.5381C22.2206 12.533 22.2077 12.5237 22.1926 12.5186L5.9004 7.42824C5.71223 7.36894 5.51141 7.36238 5.31978 7.40929C5.12815 7.45619 4.95305 7.55476 4.81355 7.69427C4.67404 7.83377 4.57547 8.00887 4.52857 8.2005C4.48166 8.39213 4.48822 8.59296 4.54752 8.78112L9.63864 25.0726C9.6696 25.1712 9.71712 25.2619 9.774 25.3469C9.792 25.3742 9.8136 25.3966 9.83376 25.4218C9.8604 25.4549 9.882 25.4909 9.91224 25.5204L21.929 37.3435L4.69008 54.5832C4.48761 54.7857 4.37387 55.0604 4.37387 55.3468C4.37387 55.6331 4.48761 55.9078 4.69008 56.1103L15.8904 67.3114C15.9907 67.4117 16.1098 67.4913 16.2409 67.5457C16.3719 67.6 16.5124 67.6279 16.6543 67.6279C16.7962 67.6279 16.9367 67.6 17.0678 67.5457C17.1989 67.4913 17.3179 67.4117 17.4182 67.3114L34.835 49.8946L48.9269 63.5897C49.1069 63.7632 49.333 63.8474 49.5641 63.8726C51.1877 65.3887 53.3273 66.2304 55.5487 66.227C57.9046 66.227 60.12 65.3098 61.7854 63.6437C65.1787 60.2503 65.2169 54.7603 61.9128 51.3115C61.8617 51.1307 61.7641 50.9664 61.6298 50.8349L47.497 37.2319L67.3106 17.4175C67.5131 17.2148 67.6267 16.9399 67.6265 16.6535C67.6264 16.367 67.5125 16.0922 67.3099 15.8897ZM20.5351 14.2646L19.728 17.0078L15.9653 18.1145C15.7919 18.1655 15.634 18.2591 15.5062 18.387C15.3784 18.5148 15.2847 18.6726 15.2338 18.846L14.1278 22.608L11.3839 23.4151L7.22448 10.1052L20.5351 14.2646ZM16.6536 65.0203L6.9804 55.3464L11.0498 51.277L15.8861 56.1132C16.097 56.3242 16.3735 56.4293 16.65 56.4293C16.9265 56.4293 17.203 56.3242 17.4139 56.1132C17.6164 55.9107 17.7301 55.636 17.7301 55.3496C17.7301 55.0633 17.6164 54.7886 17.4139 54.5861L12.5777 49.7498L16.5406 45.787L21.3768 50.6232C21.5878 50.8342 21.8642 50.9393 22.1407 50.9393C22.4172 50.9393 22.6937 50.8342 22.9046 50.6232C23.1071 50.4207 23.2208 50.146 23.2208 49.8596C23.2208 49.5733 23.1071 49.2986 22.9046 49.0961L18.0684 44.2598L23.4749 38.8534L33.2863 48.389L16.6536 65.0203ZM60.2561 62.1158C57.839 64.5314 54.0151 64.6963 51.403 62.6162L60.7572 53.262C62.8373 55.8749 62.6724 59.7002 60.2561 62.1158ZM49.6678 61.2979L24.1495 36.4975L12.7361 25.2684L15.3029 24.5138C15.4763 24.4629 15.6341 24.3692 15.7619 24.2414C15.8897 24.1136 15.9834 23.9557 16.0344 23.7823L17.141 20.0203L20.9038 18.9137C21.0772 18.8627 21.235 18.769 21.3628 18.6412C21.4906 18.5134 21.5843 18.3556 21.6353 18.1822L22.3999 15.5837L45.185 38.0016L59.3395 51.6269L49.6678 61.2979ZM45.9482 35.7257L36.1966 26.1302L41.7398 20.587L46.5761 25.4232C46.787 25.6342 47.0635 25.7393 47.34 25.7393C47.6165 25.7393 47.893 25.6342 48.1039 25.4232C48.3064 25.2207 48.4201 24.946 48.4201 24.6596C48.4201 24.3733 48.3064 24.0986 48.1039 23.8961L43.2677 19.0598L47.7706 14.557L52.6068 19.3932C52.8178 19.6042 53.0942 19.7093 53.3707 19.7093C53.6472 19.7093 53.9237 19.6042 54.1346 19.3932C54.3371 19.1907 54.4508 18.916 54.4508 18.6296C54.4508 18.3433 54.3371 18.0686 54.1346 17.8661L49.2984 13.0298L55.3478 6.9804L65.0196 16.6536L45.9482 35.7257Z" fill="#DBDBDB"/>
</g>
</svg>
