<svg width="72" height="72" viewBox="0 0 72 72" fill="none" xmlns="http://www.w3.org/2000/svg">
<g opacity="0.7">
<path d="M46.44 5.76C42.5239 5.76 38.6958 6.92125 35.4397 9.0969C32.1836 11.2726 29.6458 14.3649 28.1472 17.9829C26.6486 21.6008 26.2565 25.582 27.0205 29.4228C27.7844 33.2636 29.6702 36.7916 32.4393 39.5607C35.2084 42.3298 38.7364 44.2156 42.5772 44.9795C46.418 45.7435 50.3992 45.3514 54.0171 43.8528C57.6351 42.3542 60.7274 39.8164 62.9031 36.5603C65.0788 33.3042 66.24 29.4761 66.24 25.56C66.2343 20.3105 64.1464 15.2776 60.4344 11.5656C56.7224 7.85362 51.6895 5.76572 46.44 5.76ZM46.44 43.2C42.9511 43.2 39.5406 42.1654 36.6397 40.2271C33.7389 38.2888 31.4779 35.5338 30.1428 32.3105C28.8076 29.0872 28.4583 25.5404 29.1389 22.1186C29.8196 18.6968 31.4996 15.5536 33.9666 13.0866C36.4336 10.6196 39.5768 8.93959 42.9986 8.25895C46.4204 7.5783 49.9672 7.92764 53.1905 9.26276C56.4138 10.5979 59.1688 12.8589 61.1071 15.7597C63.0454 18.6606 64.08 22.0711 64.08 25.56C64.0743 30.2367 62.214 34.7201 58.907 38.027C55.6001 41.334 51.1167 43.1943 46.44 43.2Z" fill="#DBDBDB"/>
<path d="M18.5472 33.0768C18.6823 33.1243 18.8256 33.1444 18.9686 33.136C19.1116 33.1276 19.2515 33.0908 19.3801 33.0279C19.5088 32.9649 19.6236 32.8769 19.7179 32.7691C19.8123 32.6613 19.8842 32.5359 19.9296 32.4C20.7008 30.2334 21.9624 28.2744 23.616 26.676C23.8124 26.4752 23.9229 26.2059 23.924 25.925C23.9251 25.6442 23.8168 25.3739 23.622 25.1716C23.4271 24.9693 23.1612 24.8508 22.8805 24.8414C22.5998 24.8319 22.3264 24.9321 22.1184 25.1208C20.2225 26.9519 18.776 29.1969 17.892 31.68C17.8418 31.8146 17.8189 31.9579 17.8248 32.1015C17.8307 32.245 17.8651 32.386 17.9261 32.5161C17.9872 32.6461 18.0735 32.7627 18.1802 32.859C18.2868 32.9553 18.4116 33.0293 18.5472 33.0768Z" fill="#DBDBDB"/>
<path d="M20.4696 46.9656C20.6628 46.9657 20.8525 46.9141 21.019 46.8159C21.1854 46.7178 21.3225 46.5768 21.4159 46.4076C21.5093 46.2385 21.5556 46.0474 21.55 45.8543C21.5444 45.6611 21.487 45.473 21.384 45.3096C19.9344 43.0286 19.1375 40.394 19.08 37.692C19.0743 37.4056 18.955 37.1331 18.7484 36.9346C18.5418 36.7362 18.2648 36.6279 17.9784 36.6336C17.692 36.6393 17.4195 36.7586 17.2211 36.9652C17.0226 37.1718 16.9143 37.4488 16.92 37.7352C16.9832 40.8293 17.8921 43.8471 19.548 46.4616C19.646 46.6171 19.7821 46.745 19.9434 46.8332C20.1047 46.9214 20.2858 46.967 20.4696 46.9656Z" fill="#DBDBDB"/>
<path d="M44.5824 47.6712C42.7085 49.6173 40.3383 51.014 37.728 51.7104C37.4511 51.7839 37.2148 51.9644 37.071 52.2122C36.9272 52.46 36.8877 52.7547 36.9612 53.0316C37.0347 53.3085 37.2152 53.5448 37.463 53.6886C37.7108 53.8324 38.0055 53.8719 38.2824 53.7984C41.2733 53.0027 43.9897 51.4043 46.1376 49.176C46.2409 49.0749 46.3229 48.9541 46.3787 48.8208C46.4345 48.6875 46.4629 48.5443 46.4623 48.3997C46.4618 48.2552 46.4322 48.1122 46.3753 47.9793C46.3185 47.8465 46.2356 47.7263 46.1315 47.6261C46.0274 47.5258 45.9042 47.4475 45.7692 47.3957C45.6343 47.3439 45.4903 47.3197 45.3459 47.3246C45.2014 47.3295 45.0594 47.3633 44.9283 47.4241C44.7971 47.4849 44.6795 47.5713 44.5824 47.6784V47.6712Z" fill="#DBDBDB"/>
<path d="M32.4 52.128C29.7161 51.8619 27.1563 50.8659 24.9984 49.248C24.8849 49.1629 24.7558 49.101 24.6184 49.0658C24.481 49.0306 24.3381 49.0228 24.1977 49.0429C24.0573 49.0629 23.9222 49.1104 23.8001 49.1827C23.6781 49.2549 23.5715 49.3505 23.4864 49.464C23.4013 49.5775 23.3394 49.7066 23.3042 49.844C23.269 49.9814 23.2612 50.1243 23.2813 50.2647C23.3013 50.4051 23.3488 50.5402 23.4211 50.6623C23.4933 50.7843 23.5889 50.8909 23.7024 50.976C26.1755 52.8374 29.1114 53.9854 32.1912 54.2952H32.2992C32.5856 54.3095 32.866 54.2095 33.0787 54.0171C33.2914 53.8246 33.4189 53.5556 33.4332 53.2692C33.4475 52.9828 33.3475 52.7024 33.1551 52.4897C32.9626 52.277 32.6936 52.1495 32.4072 52.1352L32.4 52.128Z" fill="#DBDBDB"/>
<path d="M10.404 53.0064C10.1873 52.1375 10.0785 51.2451 10.08 50.3496C10.0806 49.9334 10.1046 49.5175 10.152 49.104C10.1845 48.8176 10.1018 48.53 9.92223 48.3045C9.8333 48.1928 9.72326 48.0998 9.59838 48.0306C9.4735 47.9615 9.33623 47.9177 9.1944 47.9016C9.05257 47.8855 8.90897 47.8975 8.77179 47.937C8.6346 47.9764 8.50653 48.0424 8.39488 48.1314C8.16938 48.311 8.02446 48.5728 7.992 48.8592C7.94004 49.3543 7.916 49.8518 7.92 50.3496C7.91842 51.4223 8.049 52.4912 8.3088 53.532C8.36821 53.7654 8.50393 53.9723 8.6944 54.1197C8.88487 54.2671 9.11915 54.3466 9.36 54.3456C9.5249 54.3463 9.68777 54.3092 9.83612 54.2372C9.98447 54.1652 10.1144 54.0602 10.2158 53.9302C10.3173 53.8003 10.3877 53.6488 10.4216 53.4874C10.4554 53.326 10.4519 53.159 10.4112 52.9992L10.404 53.0064Z" fill="#DBDBDB"/>
<path d="M9.8352 45.828C10.0878 45.9549 10.3801 45.9778 10.6493 45.8916C10.9185 45.8055 11.1432 45.6172 11.2752 45.3672C11.8828 44.2002 12.6976 43.1536 13.68 42.2784C13.8752 42.083 13.9881 41.8203 13.9955 41.5442C14.0029 41.2681 13.9043 40.9997 13.7199 40.7941C13.5355 40.5885 13.2793 40.4613 13.0041 40.4388C12.7288 40.4162 12.4554 40.5 12.24 40.6728C11.063 41.7238 10.0871 42.9803 9.36 44.3808C9.2319 44.6359 9.20998 44.9313 9.29902 45.2024C9.38806 45.4736 9.58083 45.6985 9.8352 45.828Z" fill="#DBDBDB"/>
<path d="M29.0736 57.528C28.206 58.5133 27.1667 59.333 26.0064 59.9472C25.8746 60.0096 25.7567 60.098 25.66 60.2071C25.5633 60.3163 25.4897 60.4439 25.4436 60.5823C25.3975 60.7206 25.38 60.8669 25.3919 61.0122C25.4039 61.1576 25.4452 61.299 25.5134 61.4279C25.5815 61.5569 25.675 61.6707 25.7883 61.7625C25.9016 61.8543 26.0324 61.9223 26.1726 61.9622C26.3129 62.0021 26.4598 62.0132 26.6045 61.9948C26.7491 61.9764 26.8886 61.9289 27.0144 61.8552C28.4045 61.125 29.6509 60.1492 30.6936 58.9752C30.8846 58.7604 30.9824 58.4785 30.9655 58.1916C30.9486 57.9046 30.8184 57.6362 30.6036 57.4452C30.3888 57.2542 30.1069 57.1564 29.82 57.1733C29.533 57.1902 29.2646 57.3204 29.0736 57.5352V57.528Z" fill="#DBDBDB"/>
<path d="M14.8032 59.3064C13.7183 58.565 12.7767 57.6331 12.024 56.556C11.9427 56.4397 11.8393 56.3406 11.7196 56.2642C11.6 56.1879 11.4665 56.1359 11.3268 56.1111C11.187 56.0864 11.0438 56.0894 10.9052 56.1201C10.7667 56.1507 10.6355 56.2083 10.5192 56.2896C10.4029 56.3709 10.3038 56.4743 10.2274 56.594C10.1511 56.7136 10.0991 56.8471 10.0743 56.9868C10.0244 57.269 10.0886 57.5595 10.2528 57.7944C11.1532 59.0856 12.2802 60.2028 13.5792 61.092C13.6957 61.1778 13.8283 61.2393 13.9691 61.2728C14.1099 61.3064 14.256 61.3113 14.3987 61.2873C14.5414 61.2633 14.6778 61.2108 14.7999 61.1331C14.9219 61.0553 15.0271 60.9538 15.1091 60.8346C15.1912 60.7154 15.2484 60.5809 15.2775 60.4391C15.3066 60.2973 15.3068 60.1512 15.2783 60.0093C15.2497 59.8674 15.193 59.7327 15.1114 59.6132C15.0298 59.4937 14.925 59.3918 14.8032 59.3136V59.3064Z" fill="#DBDBDB"/>
<path d="M22.2768 61.1208C20.9731 61.2798 19.6515 61.2042 18.3744 60.8976C18.0956 60.8298 17.8013 60.8755 17.5562 61.0248C17.3112 61.174 17.1354 61.4144 17.0676 61.6932C16.9998 61.972 17.0456 62.2663 17.1948 62.5114C17.344 62.7564 17.5844 62.9322 17.8632 63C19.3923 63.3677 20.975 63.458 22.536 63.2664C22.8224 63.2311 23.0831 63.0834 23.2607 62.8559C23.4382 62.6284 23.5181 62.3396 23.4828 62.0532C23.4475 61.7668 23.2998 61.5061 23.0723 61.3285C22.8448 61.151 22.556 61.0711 22.2696 61.1064L22.2768 61.1208Z" fill="#DBDBDB"/>
</g>
</svg>
