<svg width="72" height="72" viewBox="0 0 72 72" fill="none" xmlns="http://www.w3.org/2000/svg">
<path d="M36 37.44C32.2775 37.4438 28.7086 38.9242 26.0764 41.5564C23.4442 44.1886 21.9638 47.7575 21.96 51.48C21.96 51.7664 22.0738 52.0411 22.2763 52.2437C22.4789 52.4462 22.7536 52.56 23.04 52.56H48.96C49.2464 52.56 49.5211 52.4462 49.7237 52.2437C49.9262 52.0411 50.04 51.7664 50.04 51.48C50.0362 47.7575 48.5558 44.1886 45.9236 41.5564C43.2914 38.9242 39.7225 37.4438 36 37.44ZM24.1704 50.4C24.4336 47.4433 25.7942 44.6922 27.9843 42.6885C30.1743 40.6847 33.0352 39.5735 36.0036 39.5735C38.972 39.5735 41.8329 40.6847 44.0229 42.6885C46.213 44.6922 47.5736 47.4433 47.8368 50.4H24.1704Z" fill="#DBDBDB"/>
<path d="M35.28 34.2C36.9176 34.2 38.5185 33.7144 39.8801 32.8046C41.2418 31.8948 42.303 30.6016 42.9297 29.0886C43.5564 27.5756 43.7204 25.9108 43.4009 24.3047C43.0814 22.6985 42.2928 21.2231 41.1348 20.0652C39.9769 18.9072 38.5015 18.1186 36.8953 17.7991C35.2892 17.4796 33.6244 17.6436 32.1114 18.2703C30.5984 18.897 29.3052 19.9582 28.3954 21.3199C27.4856 22.6815 27 24.2824 27 25.92C27.0019 28.1154 27.8749 30.2204 29.4273 31.7727C30.9796 33.3251 33.0846 34.1981 35.28 34.2ZM35.28 19.8C36.4904 19.8 37.6737 20.1589 38.6801 20.8314C39.6865 21.5039 40.4709 22.4597 40.9341 23.578C41.3974 24.6963 41.5185 25.9268 41.2824 27.114C41.0463 28.3011 40.4634 29.3916 39.6075 30.2475C38.7516 31.1034 37.6611 31.6863 36.474 31.9224C35.2868 32.1585 34.0563 32.0374 32.938 31.5741C31.8197 31.1109 30.8639 30.3265 30.1914 29.3201C29.5189 28.3137 29.16 27.1304 29.16 25.92C29.1619 24.2975 29.8073 22.7419 30.9546 21.5946C32.1019 20.4473 33.6575 19.8019 35.28 19.8Z" fill="#DBDBDB"/>
<path d="M69.84 34.56H66.204C65.842 26.921 62.5991 19.7028 57.1284 14.359C51.6577 9.01519 44.3654 5.94262 36.72 5.76V1.8C36.72 1.51357 36.6062 1.23886 36.4037 1.03632C36.2011 0.833785 35.9264 0.72 35.64 0.72C35.3536 0.72 35.0789 0.833785 34.8763 1.03632C34.6738 1.23886 34.56 1.51357 34.56 1.8V5.796C27.0497 6.16257 19.9445 9.31073 14.6276 14.6276C9.31073 19.9445 6.16257 27.0497 5.796 34.56H2.16C1.87357 34.56 1.59886 34.6738 1.39632 34.8763C1.19379 35.0789 1.08 35.3536 1.08 35.64C1.08 35.9264 1.19379 36.2011 1.39632 36.4037C1.59886 36.6062 1.87357 36.72 2.16 36.72H5.76C5.94262 44.3654 9.01519 51.6577 14.359 57.1284C19.7028 62.5991 26.921 65.842 34.56 66.204V70.2C34.56 70.4864 34.6738 70.7611 34.8763 70.9637C35.0789 71.1662 35.3536 71.28 35.64 71.28C35.9264 71.28 36.2011 71.1662 36.4037 70.9637C36.6062 70.7611 36.72 70.4864 36.72 70.2V66.24C44.4917 66.0571 51.8944 62.8882 57.3913 57.3913C62.8882 51.8944 66.0571 44.4917 66.24 36.72H69.84C70.1264 36.72 70.4011 36.6062 70.6037 36.4037C70.8062 36.2011 70.92 35.9264 70.92 35.64C70.92 35.3536 70.8062 35.0789 70.6037 34.8763C70.4011 34.6738 70.1264 34.56 69.84 34.56ZM36.72 64.08V60.84C36.72 60.5536 36.6062 60.2789 36.4037 60.0763C36.2011 59.8738 35.9264 59.76 35.64 59.76C35.3536 59.76 35.0789 59.8738 34.8763 60.0763C34.6738 60.2789 34.56 60.5536 34.56 60.84V64.044C27.4939 63.6835 20.8243 60.6688 15.8852 55.6028C10.946 50.5368 8.1013 43.793 7.92 36.72H11.52C11.8064 36.72 12.0811 36.6062 12.2837 36.4037C12.4862 36.2011 12.6 35.9264 12.6 35.64C12.6 35.3536 12.4862 35.0789 12.2837 34.8763C12.0811 34.6738 11.8064 34.56 11.52 34.56H7.956C8.32164 27.6227 11.2419 21.0663 16.1541 16.1541C21.0663 11.2419 27.6227 8.32164 34.56 7.956V11.16C34.56 11.4464 34.6738 11.7211 34.8763 11.9237C35.0789 12.1262 35.3536 12.24 35.64 12.24C35.9264 12.24 36.2011 12.1262 36.4037 11.9237C36.6062 11.7211 36.72 11.4464 36.72 11.16V7.92C43.793 8.1013 50.5368 10.946 55.6028 15.8852C60.6688 20.8243 63.6835 27.4939 64.044 34.56H60.48C60.1936 34.56 59.9189 34.6738 59.7163 34.8763C59.5138 35.0789 59.4 35.3536 59.4 35.64C59.4 35.9264 59.5138 36.2011 59.7163 36.4037C59.9189 36.6062 60.1936 36.72 60.48 36.72H64.08C63.8977 43.9189 60.9566 50.7726 55.8646 55.8646C50.7726 60.9566 43.9189 63.8977 36.72 64.08Z" fill="#DBDBDB"/>
</svg>
